<svg xmlns="http://www.w3.org/2000/svg" width="135" height="24" viewBox="0 0 110 24">
    <style type="text/css">
	    .st0{fill:#000000;}
	    .st1{fill:#FF5E39;}
    </style>
    <g fill="none" fill-rule="evenodd" transform="translate(9,-2)">
        <path fill="#05F" fill-opacity="0" d="M0 0h110v24H0z"/>
        <path fill="#000" fill-rule="nonzero" d="M84.848 19h-1.116V6.965h1.116V19zm5.798-12.035c3.849 0 6.548 1.394 6.548 6.01 0 4.63-2.7 6.025-6.548 6.025h-2.932V6.965h2.932zm-.033 1.013H88.83v10.01h1.783c2.749 0 5.398-.565 5.398-5.014s-2.65-4.996-5.398-4.996zm8.68-1.013h7.747v1.03h-6.63v4.249h6.23v1.046h-6.23v4.68h6.63V19h-7.747V6.965z"/>
        <path fill="#05F" fill-opacity="0" d="M2.007 3.2H79.49v16H2.007z"/>
    </g>
    <g transform="translate(-14,0)">
	    <path class="st1" d="M24.7,6.6c-0.1-0.2-0.2-0.4-0.3-0.6c-0.3-0.6-0.7-1.2-1.1-1.7c-0.3-0.3-0.5-0.6-0.8-0.9
		c-0.9-0.9-2-1.6-3.2-2.2c-1.2-0.5-2.5-0.8-3.9-0.8c-1.4,0-2.7,0.3-3.9,0.8c-1.2,0.5-2.3,1.2-3.2,2.2c-0.9,0.9-1.6,2-2.2,3.2
		c-0.5,1.2-0.8,2.5-0.8,3.9c0,1.4,0.3,2.7,0.8,3.9c0.5,1.2,1.2,2.3,2.2,3.2c0.9,0.9,2,1.6,3.2,2.2c1.2,0.5,2.5,0.8,3.9,0.8
		c1.4,0,2.7-0.2,3.9-0.8c0.3-0.2,0.6-0.3,0.9-0.4c1-0.4,2.1-0.1,2.8,0.7c0.3,0.3,0.6,0.5,1.1,0.4c0.7,0,1.3-0.7,1.3-1.4
		c0,0,0-8.3,0-8.6C25.4,9.1,25.2,7.8,24.7,6.6z M18.2,17.2c-0.9,0.4-1.8,0.6-2.8,0.6c-1,0-1.9-0.2-2.8-0.6c-0.9-0.4-1.7-0.9-2.3-1.6
		c-0.7-0.7-1.2-1.4-1.6-2.3c-0.4-0.9-0.6-1.8-0.6-2.8s0.2-1.9,0.6-2.8C9.1,6.8,9.6,6,10.3,5.4c0.7-0.7,1.4-1.2,2.3-1.6
		c0.9-0.4,1.8-0.6,2.8-0.6c1,0,1.9,0.2,2.8,0.6c0.4,0.2,0.7,0.3,1,0.5c0.5,0.3,0.9,0.6,1.3,1c0.2,0.2,0.4,0.4,0.6,0.7
		c0.4,0.5,0.7,1,1,1.6c0.4,0.9,0.6,1.8,0.6,2.8s-0.2,1.9-0.6,2.8c-0.3,0.6-0.6,1.2-1,1.7c-0.2,0.2-0.3,0.4-0.5,0.6
		c-0.4,0.4-0.9,0.8-1.4,1.1C18.8,16.9,18.5,17,18.2,17.2z"/>
	    <circle class="st1" cx="15.4" cy="10.5" r="3.3"/>
    </g>
    <g transform="translate(-14,0)">
	    <g>
		    <path class="st0" d="M43.3,4.7c-0.6-0.6-1.4-1.1-2.2-1.5c-0.9-0.4-1.8-0.6-2.7-0.6c-1,0-1.9,0.2-2.7,0.6c-0.8,0.4-1.6,0.9-2.2,1.5
			c-0.6,0.6-1.1,1.4-1.5,2.2c-0.4,0.9-0.6,1.8-0.6,2.7c0,1,0.2,1.9,0.6,2.7c0.4,0.8,0.9,1.6,1.5,2.2c0.6,0.6,1.4,1.1,2.2,1.5
			c0.8,0.4,1.8,0.6,2.7,0.6c1,0,1.9-0.2,2.7-0.6c0.2-0.1,0.5-0.2,0.6-0.3c0.7-0.3,1.5,0,2,0.5c0.2,0.2,0.5,0.3,0.7,0.3
			c0.5,0,0.9-0.5,0.9-1c0,0,0-5.8,0-6c0-1-0.2-1.9-0.6-2.7C44.4,6.1,43.9,5.4,43.3,4.7z M41.9,13.3c-0.5,0.5-1,0.8-1.6,1.1
			c-0.6,0.3-1.3,0.4-2,0.4c-0.7,0-1.4-0.1-2-0.4c-0.6-0.3-1.2-0.6-1.6-1.1c-0.5-0.5-0.8-1-1.1-1.6c-0.3-0.6-0.4-1.3-0.4-2
			c0-0.7,0.1-1.4,0.4-2c0.3-0.6,0.6-1.2,1.1-1.6c0.5-0.5,1-0.8,1.6-1.1c0.6-0.3,1.3-0.4,2-0.4c0.7,0,1.4,0.1,2,0.4
			c0.6,0.3,1.2,0.6,1.6,1.1c0.5,0.5,0.8,1,1.1,1.6c0.3,0.6,0.4,1.3,0.4,2c0,0.7-0.1,1.4-0.4,2C42.7,12.3,42.3,12.8,41.9,13.3z"/>
		    <path class="st0" d="M51.7,6c0.5-0.5,1-0.8,1.6-1.1c0.6-0.3,1.3-0.4,2-0.4H59c0.5,0,1-0.4,1-1c0-0.5-0.4-1-1-1h-3.7
			c-1,0-1.9,0.2-2.7,0.6C51.8,3.5,51,4,50.4,4.7c-0.6,0.6-1.2,1.4-1.5,2.2c-0.4,0.9-0.6,1.8-0.6,2.8c0,1,0.2,1.9,0.6,2.8
			c0.4,0.8,0.9,1.6,1.5,2.2c0.6,0.6,1.4,1.2,2.2,1.5c0.9,0.4,1.8,0.6,2.8,0.6H59c0.5,0,1-0.4,1-1c0-0.5-0.4-1-1-1h-3.7
			c-0.7,0-1.4-0.1-2-0.4c-0.6-0.3-1.2-0.6-1.6-1.1c-0.5-0.5-0.8-1-1.1-1.6c-0.3-0.6-0.4-1.3-0.4-2c0-0.7,0.1-1.4,0.4-2
			C50.9,7.1,51.3,6.5,51.7,6z"/>
		    <path class="st0" d="M86.7,2.6L86.7,2.6c-0.6,0-1,0.4-1,1v6.1c0,0.7-0.1,1.4-0.4,2c-0.3,0.6-0.6,1.2-1.1,1.6
			c-0.5,0.5-1,0.8-1.6,1.1c-0.5,0.2-1.1,0.4-1.7,0.4c0,0-0.1,0-0.1,0c0,0-0.1,0-0.1,0h0c0,0-0.1,0-0.1,0c0,0-0.1,0-0.1,0
			c-0.3,0-0.5,0-0.8-0.1c-0.3-0.1-0.7-0.2-1-0.3c-0.6-0.3-1.2-0.6-1.6-1.1c-0.5-0.5-0.8-1-1.1-1.6c-0.3-0.6-0.4-1.3-0.4-2V3.6
			c0-0.5-0.5-1-1-1c-0.5,0-0.9,0.5-0.9,1v6.1c0,1,0.2,1.9,0.6,2.7c0.4,0.8,0.9,1.6,1.5,2.2c0,0,0.1,0.1,0.1,0.1c0,0,0,0,0,0
			c0,0,0,0,0,0c0.6,0.6,1.3,1,2.1,1.4c0.3,0.1,0.5,0.2,0.8,0.3c0,0,0,0,0,0c0.6,0.2,1,0.7,1,1.2v1.1c0,0.5,0.4,1,0.9,1
			c0.6,0,1-0.4,1-1v-1.1c0-0.6,0.4-1.2,1-1.3l0,0c0.3-0.1,0.5-0.2,0.8-0.3c0.7-0.3,1.4-0.7,2-1.3c0,0,0.1-0.1,0.1-0.1c0,0,0,0,0,0
			c0,0,0.1-0.1,0.1-0.1c0.6-0.6,1.1-1.4,1.5-2.2c0.4-0.9,0.6-1.8,0.6-2.7V3.6C87.6,3,87.2,2.6,86.7,2.6z"/>
		    <path class="st0" d="M98.2,14.8c-0.7,0-1.4-0.1-2-0.4c-0.6-0.3-1.2-0.6-1.6-1.1c-0.5-0.5-0.8-1-1.1-1.6c-0.3-0.6-0.4-1.3-0.4-2
			V3.6c0-0.5-0.4-1-1-1h0c-0.5,0-1,0.4-1,1v6.1c0,1,0.2,1.9,0.6,2.7c0.4,0.8,0.9,1.6,1.5,2.2c0.6,0.6,1.4,1.1,2.2,1.5
			c0.8,0.4,1.8,0.6,2.7,0.6c0.5,0,1-0.4,1-1C99.2,15.2,98.8,14.8,98.2,14.8z"/>
	    </g>
	    <path class="st0" d="M70.9,3.6c0-0.5-0.4-1-1-1c-1,0-1.9,0.2-2.7,0.6c-0.8,0.4-1.6,0.9-2.2,1.5c-0.6,0.6-1.1,1.4-1.5,2.2
		c-0.4,0.9-0.6,1.8-0.6,2.7v6.1c0,0.5,0.4,1,1,1c0.5,0,1-0.4,1-1V9.7c0-0.7,0.1-1.4,0.4-2c0.3-0.6,0.6-1.2,1.1-1.6
		c0.5-0.5,1-0.8,1.6-1.1c0.9-0.4,1,0.9,1.9,0.9c0.5,0,1-0.4,1-1C70.9,4.7,70.9,3.9,70.9,3.6z"/>
    </g>
</svg>
