<?xml version="1.0" encoding="UTF-8" standalone="no"?>
<!DOCTYPE svg PUBLIC "-//W3C//DTD SVG 1.1//EN" "http://www.w3.org/Graphics/SVG/1.1/DTD/svg11.dtd">
<svg version="1.1" xmlns="http://www.w3.org/2000/svg" xmlns:xlink="http://www.w3.org/1999/xlink" preserveAspectRatio="xMidYMid meet" viewBox="0 0 107 24" width="107" height="24"><defs><path d="M11.5 7.6L11.49 7.61L11.47 7.64L11.47 7.65L11.05 8.33L11.01 8.39L10.99 8.43L10.92 8.53L10.89 8.59L10.87 8.64C10.83 8.7 10.8 8.74 10.8 8.75C8.19 12.99 5.58 17.24 2.97 21.48C2.92 21.55 2.85 21.6 2.75 21.6C2.5 21.6 0.51 21.6 0.26 21.6C0.07 21.6 -0.06 21.41 0.03 21.25C0.02 21.24 11.5 2.52 11.51 2.52C11.61 2.37 11.85 2.37 11.94 2.52C11.95 2.52 23.43 21.24 23.42 21.25C23.51 21.41 23.39 21.6 23.19 21.6C22.94 21.6 20.95 21.6 20.7 21.6C20.6 21.6 20.53 21.55 20.49 21.48C17.87 17.24 15.26 12.99 12.65 8.75C12.65 8.74 12.63 8.7 12.58 8.64L12.57 8.59L12.53 8.53L12.46 8.43L12.44 8.39L12.4 8.33L11.98 7.65L11.98 7.64L11.96 7.61L11.95 7.6C11.95 7.59 11.94 7.59 11.94 7.58C11.92 7.55 11.89 7.54 11.87 7.52C11.87 7.52 11.87 7.52 11.87 7.52L11.87 7.51L11.87 7.51L11.86 7.51L11.86 7.51L11.85 7.51L11.85 7.51L11.84 7.5L11.84 7.5L11.84 7.5L11.84 7.5L11.83 7.5L11.83 7.5L11.82 7.49L11.82 7.49L11.81 7.49L11.81 7.49L11.81 7.49L11.81 7.49L11.8 7.49L11.8 7.49L11.78 7.48L11.77 7.48L11.77 7.48L11.77 7.48L11.77 7.48L11.76 7.48L11.76 7.48L11.75 7.48L11.74 7.48L11.73 7.48L11.73 7.48L11.73 7.48L11.71 7.48L11.7 7.48L11.7 7.48L11.69 7.48L11.68 7.48L11.68 7.48L11.67 7.48L11.67 7.48L11.67 7.48L11.67 7.48L11.66 7.49L11.65 7.49L11.65 7.49L11.65 7.49L11.64 7.49L11.63 7.5L11.63 7.5L11.62 7.5L11.62 7.5L11.62 7.5L11.62 7.5L11.61 7.51L11.61 7.51L11.6 7.51L11.6 7.51L11.59 7.51L11.59 7.51L11.59 7.52C11.59 7.52 11.59 7.52 11.59 7.52C11.56 7.54 11.53 7.55 11.51 7.58C11.51 7.58 11.51 7.58 11.51 7.58L11.5 7.6ZM140.66 16.61L140.66 17.75L132.62 17.75L132.62 6.26L140.5 6.26L140.5 7.41L133.85 7.41L133.85 11.18L139.18 11.18L139.18 12.34L133.85 12.34L133.85 16.61L140.66 16.61ZM149.93 6.26L151.41 6.26L147.48 11.75L151.74 17.75L150.26 17.75L146.74 12.74L143.2 17.75L141.73 17.75L145.99 11.75L142.05 6.26L143.53 6.26L146.74 10.77L149.93 6.26ZM158.14 6.26C159.21 6.26 160.09 6.6 160.79 7.29C161.48 7.98 161.84 8.84 161.84 9.87C161.84 10.9 161.48 11.75 160.78 12.45C160.08 13.14 159.2 13.49 158.14 13.49C157.94 13.49 156.9 13.49 155.02 13.49L155.02 17.75L153.79 17.75L153.79 6.26C156.4 6.26 157.85 6.26 158.14 6.26ZM155.02 7.41L155.02 12.34C156.89 12.34 157.93 12.34 158.14 12.34C158.88 12.34 159.48 12.11 159.93 11.65C160.38 11.2 160.6 10.62 160.6 9.87C160.6 9.13 160.38 8.53 159.93 8.08C159.48 7.63 158.88 7.41 158.14 7.41C158.14 7.41 158.14 7.41 158.14 7.41L155.02 7.41ZM164.46 17.75L164.46 6.26L165.7 6.26L165.7 16.61L171.6 16.61L171.6 17.75L164.46 17.75ZM173.48 12C173.48 13.35 173.94 14.48 174.84 15.4C175.74 16.31 176.84 16.76 178.16 16.76C179.48 16.76 180.58 16.31 181.49 15.4C182.39 14.48 182.84 13.35 182.84 12C182.84 10.66 182.39 9.52 181.49 8.61C180.58 7.7 179.47 7.24 178.16 7.24C176.84 7.24 175.74 7.7 174.84 8.61C174.84 8.61 174.84 8.61 174.84 8.61C173.94 9.97 173.48 11.1 173.48 12ZM184.07 12C184.07 13.64 183.5 15.04 182.35 16.19C181.19 17.34 179.8 17.91 178.16 17.91C176.52 17.91 175.13 17.34 173.97 16.19C172.82 15.04 172.26 13.64 172.26 12C172.26 10.36 172.82 8.97 173.97 7.81C175.13 6.67 176.52 6.1 178.16 6.1C179.8 6.1 181.19 6.67 182.35 7.81C182.35 7.81 182.35 7.81 182.35 7.81C183.5 9.51 184.07 10.91 184.07 12ZM191.37 6.26C192.39 6.26 193.23 6.59 193.9 7.24C194.58 7.9 194.91 8.72 194.91 9.71C194.91 10.2 194.83 10.64 194.66 11.05C194.49 11.45 194.3 11.77 194.07 12C193.84 12.23 193.61 12.43 193.37 12.59C193.14 12.75 192.93 12.85 192.77 12.9C192.75 12.91 192.67 12.94 192.52 12.99L195.24 17.75L193.85 17.75L191.29 13.15L188.01 13.15L188.01 17.75L186.78 17.75L186.78 6.26C189.53 6.26 191.06 6.26 191.37 6.26ZM188.01 7.41L188.01 12C190.03 12 191.15 12 191.37 12C192.07 12 192.64 11.8 193.05 11.38C193.46 10.96 193.67 10.41 193.67 9.71C193.67 9 193.46 8.45 193.05 8.04C192.64 7.61 192.07 7.41 191.37 7.41C191.37 7.41 191.37 7.41 191.37 7.41L188.01 7.41ZM205.9 16.61L205.9 17.75L197.86 17.75L197.86 6.26L205.74 6.26L205.74 7.41L199.1 7.41L199.1 11.18L204.43 11.18L204.43 12.34L199.1 12.34L199.1 16.61L205.9 16.61ZM212.96 6.26C213.97 6.26 214.81 6.59 215.49 7.24C216.16 7.9 216.49 8.72 216.49 9.71C216.49 10.2 216.41 10.64 216.24 11.05C216.08 11.45 215.88 11.77 215.65 12C215.42 12.23 215.19 12.43 214.95 12.59C214.72 12.75 214.52 12.85 214.36 12.9C214.35 12.91 214.26 12.94 214.11 12.99L216.82 17.75L215.43 17.75L212.87 13.15L209.6 13.15L209.6 17.75L208.36 17.75L208.36 6.26C211.12 6.26 212.65 6.26 212.96 6.26ZM209.6 7.41L209.6 12C211.62 12 212.74 12 212.96 12C213.65 12 214.22 11.8 214.63 11.38C215.04 10.96 215.25 10.41 215.25 9.71C215.25 9 215.04 8.45 214.63 8.04C214.22 7.61 213.65 7.41 212.96 7.41C212.96 7.41 212.96 7.41 212.96 7.41L209.6 7.41ZM119.67 0L120.22 0L120.22 24L119.67 24L119.13 24L119.13 0L119.67 0ZM79.06 21.36C79.06 19.07 79.06 16.77 79.06 14.47C79.06 14.44 79.07 14.4 79.09 14.36C81.14 10.79 86.09 2.76 86.08 2.76C86.17 2.61 86.06 2.42 85.88 2.42C85.11 2.4 84.33 2.42 83.55 2.42C83.46 2.42 83.4 2.46 83.35 2.53C81.67 5.44 78.05 11.19 78.05 11.19C78 11.26 77.92 11.31 77.84 11.31C77.76 11.31 77.68 11.26 77.65 11.2C77.67 11.26 73.97 5.38 72.33 2.53C72.28 2.46 72.21 2.42 72.13 2.42C71.35 2.42 70.57 2.4 69.8 2.42C69.62 2.42 69.51 2.61 69.59 2.76C69.59 2.76 74.53 10.79 76.6 14.36C76.61 14.4 76.62 14.44 76.63 14.47C76.63 16.77 76.63 19.07 76.63 21.36C76.63 21.49 76.73 21.59 76.86 21.59C76.99 21.59 77.64 21.59 78.82 21.59C78.98 21.53 79.06 21.45 79.06 21.36ZM35.89 19.16C37.66 19.16 39.19 18.57 40.52 17.46C40.62 17.38 40.77 17.38 40.87 17.47C41 17.61 42.11 18.72 42.25 18.85C42.34 18.95 42.34 19.1 42.24 19.19C40.43 20.75 38.3 21.6 35.89 21.6C30.6 21.6 26.31 17.3 26.31 12.01C26.31 6.71 30.6 2.42 35.89 2.42C38.3 2.42 40.43 3.26 42.24 4.83C42.34 4.92 42.34 5.07 42.25 5.16C42.11 5.3 41 6.41 40.87 6.55C40.77 6.64 40.62 6.64 40.52 6.56C39.19 5.45 37.66 4.85 35.89 4.85C31.95 4.85 28.74 8.05 28.74 12.01C28.74 12.01 28.74 12.01 28.74 12.01C30.88 16.78 33.26 19.16 35.89 19.16ZM48.08 2.42C50.79 2.42 53.51 2.42 56.23 2.42C59.54 2.42 62.24 5.12 62.24 8.43C62.24 11.16 60.42 13.45 57.94 14.19C57.95 14.19 62.26 21.25 62.26 21.25C62.34 21.41 62.23 21.6 62.04 21.6C61.79 21.6 59.81 21.6 59.57 21.6C59.47 21.6 59.4 21.55 59.36 21.48C58.88 20.71 53.76 12.37 53.76 12.37C53.66 12.22 53.76 12.02 53.95 12.01C54.76 12.01 55.41 12.01 56.23 12.01C58.2 12.01 59.8 10.41 59.8 8.43C59.8 6.45 58.2 4.85 56.23 4.85C56.23 4.85 49.85 4.85 49.28 4.85C49.2 4.85 49.12 4.81 49.07 4.74C48.99 4.61 48.59 3.96 47.87 2.77C47.89 2.54 47.95 2.42 48.08 2.42ZM106.55 19.16C106.68 19.16 106.78 19.27 106.78 19.4C106.78 19.6 106.78 21.16 106.78 21.36C106.78 21.49 106.68 21.6 106.55 21.6C105.36 21.6 95.86 21.6 94.68 21.6C94.55 21.6 94.45 21.49 94.45 21.36C94.45 19.49 94.45 4.53 94.45 2.66C94.45 2.52 94.55 2.42 94.68 2.42C94.87 2.42 96.44 2.42 96.63 2.42C96.77 2.42 96.87 2.52 96.87 2.66C96.87 4.29 96.87 17.31 96.87 18.94C96.87 19.07 96.98 19.16 97.1 19.16C97.1 19.16 97.1 19.16 97.1 19.16C102.77 19.16 105.92 19.16 106.55 19.16ZM9.07 16.33C9.07 16.33 9.07 16.33 9.07 16.33C9.05 16.36 9.04 16.4 9.04 16.44C9.04 16.57 9.15 16.68 9.28 16.68C9.45 16.68 10.26 16.68 11.73 16.68C13.19 16.68 14.01 16.68 14.17 16.68C14.3 16.68 14.41 16.57 14.41 16.44C14.41 16.4 14.4 16.36 14.38 16.33C14.38 16.33 14.38 16.33 14.38 16.33L11.93 12.36C11.93 12.36 11.93 12.36 11.93 12.36C11.88 12.3 11.82 12.25 11.73 12.25C11.64 12.25 11.57 12.3 11.52 12.36C11.52 12.36 11.52 12.36 11.52 12.36L9.07 16.33Z" id="a1FIsFZbL"></path><path d="M304.67 17.81L514.16 17.81L514.16 57.23L304.67 57.23L304.67 17.81Z" id="ifjMYcurs"></path><path d="M310.55 48.86L310.55 23.23L312.94 23.23L312.94 48.86L310.55 48.86ZM339.38 36.03C339.38 45.89 333.6 48.86 325.36 48.86C324.94 48.86 322.85 48.86 319.08 48.86L319.08 23.23L325.36 23.23C334.71 25.21 339.38 29.48 339.38 36.03ZM321.47 25.39L321.47 46.71C323.76 46.71 325.03 46.71 325.29 46.71C331.18 46.71 336.85 45.51 336.85 36.03C336.85 26.55 331.18 25.39 325.29 25.39C324.78 25.39 323.51 25.39 321.47 25.39ZM360.47 23.23L360.47 25.42L346.27 25.42L346.27 34.47L359.61 34.47L359.61 36.7L346.27 36.7L346.27 46.67L360.47 46.67L360.47 48.86L343.88 48.86L343.88 23.23L360.47 23.23Z" id="cZxPYgZxC"></path></defs><g><g><g><use xlink:href="#a1FIsFZbL" opacity="1" fill="#2d2d2c" fill-opacity="1"></use><g><use xlink:href="#a1FIsFZbL" opacity="1" fill-opacity="0" stroke="#000000" stroke-width="1" stroke-opacity="0"></use></g></g><g><use xlink:href="#ifjMYcurs" opacity="1" fill="#ffffff" fill-opacity="1"></use></g><g><use xlink:href="#cZxPYgZxC" opacity="1" fill="#000000" fill-opacity="1"></use><g><use xlink:href="#cZxPYgZxC" opacity="1" fill-opacity="0" stroke="#000000" stroke-width="1" stroke-opacity="0"></use></g></g></g></g></svg>